# xmcd
#
# Track frame offsets:
#	150
#	7497
#	22804
#	38314
#	45907
#	56040
#	62885
#	73991
#	88577
#	96831
#	111715
#	116807
#	124816
#	138563
#	144430
#	154950
#	162201
#	175092
#	187583
#	201702
#	214952
#	231983
#	242611
#	258601
#	270532
#	280898
#	297421
#	311270
#	320360
#	330538
#
# Disc length: 4529 seconds
#
# Revision: 1
# Processed by: cddbd v1.5.2PL0 Copyright (c) Steve Scherf et al.
# Submitted via: audiograbber 1.83.01
#
DISCID=c811af1e
DTITLE=Peter Zucker und seine Kuscheltierbande - Die schönsten deutschen Kinder
DTITLE=lieder
DYEAR=2009
DGENRE=Kinderlieder
TTITLE0=Hänschen Klein
TTITLE1=Bruder Jakob
TTITLE2=Grün, grün, grün sind alle meine Kleider
TTITLE3=Ein Vogel wollte Hochzeit machen
TTITLE4=Das rote Pferd
TTITLE5=Es tanzt ein Bi Ba Butzemann
TTITLE6=Meine Oma fährt im Hühnerstall Motorrad
TTITLE7=Unsere Hände sind verschwunden
TTITLE8=Laterne, Sonne, Mond und Sterne
TTITLE9=Was ist los
TTITLE10=Fuchs du hast die Gans gestohlen
TTITLE11=Dornröschen
TTITLE12=Asisa aputadidle
TTITLE13=Ein Männlein steht im Walde
TTITLE14=Die Biene
TTITLE15=Was macht der Fuhrmann
TTITLE16=Ich bin ein kleiner Tanzbär
TTITLE17=Sing die kleine Melodie
TTITLE18=Zehn kleine Negerlein
TTITLE19=Im Märzen der Bauer
TTITLE20=Die Affen rasen durch den Wald
TTITLE21=Ilse Bilse Spinne
TTITLE22=Auf dr schwäbsche Eisenbahne
TTITLE23=Drei Chinesen mit dem Kontrabass
TTITLE24=Die Vögel wollten Hochzeit halten
TTITLE25=Zeigt her eure Füße
TTITLE26=Auf der Mauer, auf der Lauer
TTITLE27=Alle Vögel sind schon da
TTITLE28=Die Blümelein, sie schlafen
TTITLE29=Weißt du wieviel Sternlein stehen
EXTD=
EXTT0=
EXTT1=
EXTT2=
EXTT3=
EXTT4=
EXTT5=
EXTT6=
EXTT7=
EXTT8=
EXTT9=
EXTT10=
EXTT11=
EXTT12=
EXTT13=
EXTT14=
EXTT15=
EXTT16=
EXTT17=
EXTT18=
EXTT19=
EXTT20=
EXTT21=
EXTT22=
EXTT23=
EXTT24=
EXTT25=
EXTT26=
EXTT27=
EXTT28=
EXTT29=
PLAYORDER=
